<svg width="164" height="164" viewBox="0 0 164 164" fill="none" xmlns="http://www.w3.org/2000/svg">
<path d="M82 0C36.7852 0 0 36.7852 0 82C0 127.215 36.7852 164 82 164C127.215 164 164 127.215 164 82C164 36.7852 127.215 0 82 0ZM16.4 82C16.4 74.6282 17.6792 67.5516 19.9342 60.9342L32.8 73.8L49.2 90.2V106.6L65.6 123L73.8 131.2V147.034C41.5002 142.975 16.4 115.39 16.4 82ZM133.906 121.959C128.551 117.645 120.433 114.8 114.8 114.8V106.6C114.8 102.25 113.072 98.079 109.997 95.0034C106.921 91.9279 102.75 90.2 98.4 90.2H65.6V65.6C69.9495 65.6 74.1209 63.8721 77.1965 60.7965C80.2721 57.721 82 53.5495 82 49.2V41H90.2C94.5495 41 98.7209 39.2721 101.797 36.1966C104.872 33.121 106.6 28.9496 106.6 24.6V21.2298C130.61 30.9796 147.6 54.53 147.6 82C147.597 96.4702 142.779 110.528 133.906 121.959Z" fill="url(#paint0_linear_103_484)"/>
<defs>
<linearGradient id="paint0_linear_103_484" x1="82" y1="0" x2="82" y2="164" gradientUnits="userSpaceOnUse">
<stop stop-color="#FF4D00"/>
<stop offset="1" stop-color="#FE3C72"/>
</linearGradient>
</defs>
</svg>
