<svg width="188" height="188" viewBox="0 0 188 188" fill="none" xmlns="http://www.w3.org/2000/svg">
<g filter="url(#filter0_d_102_478)">
<path d="M120.667 116.667L174 170M76.2222 134.444C68.0511 134.444 59.96 132.835 52.4108 129.708C44.8617 126.581 38.0023 121.998 32.2245 116.22C26.4466 110.442 21.8633 103.583 18.7364 96.0336C15.6094 88.4845 14 80.3934 14 72.2222C14 64.0511 15.6094 55.96 18.7364 48.4108C21.8633 40.8617 26.4466 34.0023 32.2245 28.2245C38.0023 22.4466 44.8617 17.8633 52.4108 14.7364C59.96 11.6094 68.0511 10 76.2222 10C92.7246 10 108.551 16.5555 120.22 28.2245C131.889 39.8934 138.444 55.7199 138.444 72.2222C138.444 88.7246 131.889 104.551 120.22 116.22C108.551 127.889 92.7246 134.444 76.2222 134.444Z" stroke="url(#paint0_linear_102_478)" stroke-width="20" stroke-linecap="round" stroke-linejoin="round" shape-rendering="crispEdges"/>
</g>
<defs>
<filter id="filter0_d_102_478" x="0" y="0" width="188" height="188" filterUnits="userSpaceOnUse" color-interpolation-filters="sRGB">
<feFlood flood-opacity="0" result="BackgroundImageFix"/>
<feColorMatrix in="SourceAlpha" type="matrix" values="0 0 0 0 0 0 0 0 0 0 0 0 0 0 0 0 0 0 127 0" result="hardAlpha"/>
<feOffset dy="4"/>
<feGaussianBlur stdDeviation="2"/>
<feComposite in2="hardAlpha" operator="out"/>
<feColorMatrix type="matrix" values="0 0 0 0 0 0 0 0 0 0 0 0 0 0 0 0 0 0 0.25 0"/>
<feBlend mode="normal" in2="BackgroundImageFix" result="effect1_dropShadow_102_478"/>
<feBlend mode="normal" in="SourceGraphic" in2="effect1_dropShadow_102_478" result="shape"/>
</filter>
<linearGradient id="paint0_linear_102_478" x1="94" y1="10" x2="95.9227" y2="172.78" gradientUnits="userSpaceOnUse">
<stop stop-color="#FF4D00"/>
<stop offset="1" stop-color="#FE3C72"/>
</linearGradient>
</defs>
</svg>
