<svg width="27" height="35" viewBox="0 0 27 35" fill="none" xmlns="http://www.w3.org/2000/svg">
<path d="M25.6737 15.421C24.9343 13.7568 23.8595 12.2632 22.5164 11.0335L21.4081 10.0166C21.3705 9.98298 21.3252 9.95914 21.2762 9.94716C21.2272 9.93517 21.176 9.93539 21.1271 9.9478C21.0783 9.96021 21.0332 9.98442 20.9958 10.0183C20.9585 10.0522 20.93 10.0948 20.913 10.1422L20.4179 11.5628C20.1094 12.4541 19.5419 13.3643 18.7383 14.2593C18.685 14.3165 18.624 14.3317 18.5821 14.3355C18.5402 14.3393 18.4755 14.3317 18.4184 14.2784C18.365 14.2327 18.3384 14.1641 18.3422 14.0956C18.4831 11.8028 17.7976 9.21675 16.297 6.4022C15.0554 4.06372 13.3301 2.23941 11.1744 0.967337L9.60147 0.0418494C9.3958 -0.0800256 9.13301 0.0799352 9.14443 0.319877L9.22822 2.148C9.28535 3.39722 9.14062 4.50171 8.79785 5.41958C8.37891 6.54312 7.77715 7.58667 7.00781 8.52359C6.47242 9.17473 5.86559 9.76367 5.19873 10.2794C3.59267 11.514 2.28673 13.0959 1.37871 14.9068C0.472928 16.7334 0.0011051 18.7446 0 20.7834C0 22.5811 0.354199 24.3216 1.05498 25.9631C1.73164 27.5436 2.70813 28.9779 3.93047 30.1869C5.16445 31.4056 6.59648 32.3654 8.19229 33.0319C9.84521 33.7251 11.5972 34.0754 13.4062 34.0754C15.2153 34.0754 16.9673 33.7251 18.6202 33.0357C20.2121 32.3731 21.6596 31.4068 22.882 30.1907C24.116 28.9719 25.0834 27.5475 25.7575 25.9669C26.4572 24.3299 26.8162 22.5675 26.8125 20.7873C26.8125 18.9287 26.4316 17.1234 25.6737 15.421Z" fill="url(#paint0_linear_103_531)"/>
<defs>
<linearGradient id="paint0_linear_103_531" x1="6.08224" y1="17.0377" x2="21.1104" y2="17.0377" gradientUnits="userSpaceOnUse">
<stop stop-color="#FF4D00"/>
<stop offset="1" stop-color="#FE3C72"/>
</linearGradient>
</defs>
</svg>
