<svg width="27" height="35" viewBox="0 0 27 35" fill="none" xmlns="http://www.w3.org/2000/svg">
<path d="M25.7675 15.8699C25.0281 14.2058 23.9532 12.7121 22.6102 11.4824L21.5019 10.4655C21.4642 10.4319 21.4189 10.4081 21.3699 10.3961C21.321 10.3841 21.2698 10.3844 21.2209 10.3968C21.172 10.4092 21.1269 10.4334 21.0896 10.4673C21.0522 10.5012 21.0238 10.5438 21.0067 10.5912L20.5116 12.0118C20.2031 12.903 19.6356 13.8133 18.832 14.7083C18.7787 14.7654 18.7178 14.7807 18.6759 14.7845C18.634 14.7883 18.5692 14.7807 18.5121 14.7273C18.4588 14.6816 18.4321 14.6131 18.4359 14.5445C18.5769 12.2518 17.8913 9.66573 16.3907 6.85117C15.1491 4.5127 13.4238 2.68838 11.2682 1.41631L9.69522 0.490824C9.48955 0.368949 9.22676 0.52891 9.23818 0.768851L9.32197 2.59698C9.3791 3.84619 9.23438 4.95069 8.8916 5.86856C8.47266 6.99209 7.8709 8.03565 7.10156 8.97256C6.56617 9.6237 5.95934 10.2126 5.29248 10.7283C3.68642 11.9629 2.38048 13.5449 1.47246 15.3558C0.566678 17.1824 0.0948551 19.1935 0.09375 21.2324C0.09375 23.0301 0.447949 24.7706 1.14873 26.4121C1.82539 27.9925 2.80188 29.4269 4.02422 30.6358C5.2582 31.8546 6.69023 32.8144 8.28604 33.4809C9.93896 34.174 11.6909 34.5244 13.5 34.5244C15.3091 34.5244 17.061 34.174 18.714 33.4847C20.3058 32.8221 21.7534 31.8557 22.9758 30.6397C24.2098 29.4209 25.1771 27.9965 25.8513 26.4159C26.551 24.7789 26.91 23.0165 26.9062 21.2362C26.9062 19.3776 26.5254 17.5724 25.7675 15.8699Z" fill="white"/>
</svg>
