<svg width="214" height="128" viewBox="0 0 214 128" fill="none" xmlns="http://www.w3.org/2000/svg">
<path d="M108.137 7.06735L75.7694 33.2032C70.3859 37.5369 69.3494 45.3377 73.4287 50.9049C77.7422 56.8388 86.135 58.0056 91.9197 53.5051L125.123 27.7693C127.464 25.9692 130.807 26.3692 132.647 28.7028C134.486 31.0363 134.051 34.37 131.71 36.2035L124.722 41.604L171.2 84.2748V21.3354H170.966L169.662 20.502L145.386 5.00048C140.27 1.7335 134.285 0 128.199 0C120.91 0 113.821 2.50024 108.137 7.06735ZM115.761 48.538L98.4734 61.9393C87.9406 70.1401 72.6597 68.0065 64.7684 57.2055C57.3453 47.0379 59.2178 32.8365 69.015 24.9357L96.835 2.50024C92.9563 0.86675 88.7766 0.033336 84.53 0.033336C78.2438 -5.09172e-07 72.1247 1.86685 66.875 5.33385L42.8 21.3354V96.0092H52.2294L82.7913 123.812C89.345 129.779 99.4766 129.312 105.462 122.778C107.301 120.745 108.538 118.378 109.173 115.911L114.858 121.112C121.378 127.079 131.543 126.646 137.528 120.145C139.033 118.511 140.137 116.611 140.839 114.644C147.326 118.978 156.153 118.078 161.603 112.144C167.589 105.643 167.154 95.5092 160.634 89.5419L115.761 48.538ZM5.35 21.3354C2.4075 21.3354 0 23.7356 0 26.6692V96.0092C0 101.91 4.78156 106.677 10.7 106.677H21.4C27.3184 106.677 32.1 101.91 32.1 96.0092V21.3354H5.35ZM16.05 85.3415C17.4689 85.3415 18.8297 85.9035 19.833 86.9038C20.8363 87.9041 21.4 89.2608 21.4 90.6754C21.4 92.09 20.8363 93.4467 19.833 94.447C18.8297 95.4473 17.4689 96.0092 16.05 96.0092C14.6311 96.0092 13.2703 95.4473 12.267 94.447C11.2637 93.4467 10.7 92.09 10.7 90.6754C10.7 89.2608 11.2637 87.9041 12.267 86.9038C13.2703 85.9035 14.6311 85.3415 16.05 85.3415ZM181.9 21.3354V96.0092C181.9 101.91 186.682 106.677 192.6 106.677H203.3C209.218 106.677 214 101.91 214 96.0092V26.6692C214 23.7356 211.592 21.3354 208.65 21.3354H181.9ZM192.6 90.6754C192.6 89.2608 193.164 87.9041 194.167 86.9038C195.17 85.9035 196.531 85.3415 197.95 85.3415C199.369 85.3415 200.73 85.9035 201.733 86.9038C202.736 87.9041 203.3 89.2608 203.3 90.6754C203.3 92.09 202.736 93.4467 201.733 94.447C200.73 95.4473 199.369 96.0092 197.95 96.0092C196.531 96.0092 195.17 95.4473 194.167 94.447C193.164 93.4467 192.6 92.09 192.6 90.6754Z" fill="url(#paint0_linear_103_480)"/>
<defs>
<linearGradient id="paint0_linear_103_480" x1="107" y1="0" x2="107" y2="128" gradientUnits="userSpaceOnUse">
<stop stop-color="#FF4D00"/>
<stop offset="1" stop-color="#FE3C72"/>
</linearGradient>
</defs>
</svg>
